<?xml version="1.0" encoding="UTF-8"?>
<svg viewBox="0 0 744.09448 1052.3622" xmlns="http://www.w3.org/2000/svg">
 <path d="m488.78 304.12s-9.0998 20.151-18.219 20.438-19.438-19.25-19.438-19.25-3.8013 21.767-12.562 24.312-23.656-13.781-23.656-13.781 1.7592 22.012-6.0938 26.656-26.344-7.4688-26.344-7.4688 7.17 20.892 0.71875 27.344-27.375-0.6875-27.375-0.6875 12.144 18.46 7.5 26.312-26.688 6.125-26.688 6.125 16.358 14.864 13.812 23.625-24.312 12.562-24.312 12.562 19.537 10.35 19.25 19.469-20.438 18.219-20.438 18.219 21.479 5.1588 23.469 14.062-15.25 22.719-15.25 22.719 22.108-0.34783 26.25 7.7812-9.125 25.812-9.125 25.812 21.31-5.8436 27.344 1-2.4375 27.25-2.4375 27.25 19.204-10.941 26.75-5.8125 4.4375 27 4.4375 27 15.853-15.372 24.438-12.281 11.031 25.062 11.031 25.062 11.542-18.859 20.625-18 16.906 21.531 16.906 21.531 6.4888-21.104 15.5-22.531 21.719 16.656 21.719 16.656 1.0331-22.095 9.4062-25.719 25.188 10.75 25.188 10.75-4.4902-21.658 2.7188-27.25 27.062 4.125 27.062 4.125-9.7168-19.822-4.125-27.031 27.219-2.75 27.219-2.75-14.342-16.783-10.719-25.156 25.688-9.4375 25.688-9.4375-18.083-12.708-16.656-21.719 22.562-15.5 22.562-15.5-20.673-7.8233-21.531-16.906 17.969-20.625 17.969-20.625-21.941-2.4159-25.031-11 12.281-24.469 12.281-24.469-21.872 3.1396-27-4.4062 5.8125-26.75 5.8125-26.75-20.438 8.4397-27.281 2.4062-1-27.344-1-27.344-17.683 13.267-25.812 9.125-7.7812-26.219-7.7812-26.219-13.815 17.24-22.719 15.25-14.062-23.5-14.062-23.5z" fill="#fff" stroke="#000" stroke-width="8"/>
 <path d="m474.94 347.54c-58.111 0-105.36 46.466-106.59 104.28 5.743-48.639 47.131-86.375 97.312-86.375 54.109 0 97.969 43.891 97.969 98 0 50.278-37.882 91.669-86.656 97.281 57.946-1.0845 104.59-48.389 104.59-106.59 0-58.885-47.74-106.59-106.62-106.59z"/>
 <path d="m489.94 291.82-4.8125 10.656s-2.1855 4.7925-5.375 9.5312c-1.5947 2.3694-3.4324 4.6954-5.1875 6.2812s-3.2954 2.2552-4.125 2.2812-2.4331-0.55971-4.2812-2.0312-3.8258-3.6737-5.5625-5.9375c-3.4735-4.5276-5.9375-9.1562-5.9375-9.1562l-5.4688-10.344-2 11.531s-0.9334 5.1518-2.8438 10.531c-0.95517 2.6897-2.1634 5.4038-3.4688 7.375s-2.6395 3.0182-3.4375 3.25-2.4953 0.0578-4.6562-0.90625-4.6245-2.5861-6.875-4.3438c-4.501-3.5152-8.0625-7.4062-8.0625-7.4062l-7.875-8.625 0.9375 11.656s0.41219 5.2255-0.0937 10.906c-0.25297 2.8404-0.75966 5.7686-1.5312 8s-1.7848 3.577-2.5 4-2.4169 0.67793-4.75 0.28125-5.1326-1.3568-7.75-2.5c-5.2347-2.2863-9.625-5.1562-9.625-5.1562l-9.7812-6.4062 3.8125 11.031s1.6729 4.9631 2.5938 10.594c0.46043 2.8153 0.72433 5.7706 0.53125 8.125s-0.88122 3.9125-1.4688 4.5-2.1415 1.2731-4.5 1.4688-5.3054-0.0431-8.125-0.5c-5.6392-0.91377-10.625-2.5938-10.625-2.5938l-11.063-3.7812 6.4375 9.75s2.8631 4.3985 5.1562 9.625c1.1466 2.6132 2.1324 5.4208 2.5312 7.75s0.14147 4.004-0.28125 4.7188-1.7645 1.7254-4 2.5-5.1553 1.2746-8 1.5312c-5.6895 0.51337-10.938 0.125-10.938 0.125l-11.656-0.90625 8.6562 7.8438s3.8842 3.5693 7.4062 8.0625c1.761 2.2466 3.3778 4.7177 4.3438 6.875s1.1378 3.8279 0.90625 4.625-1.2788 2.1321-3.25 3.4375-4.6853 2.5136-7.375 3.4688c-5.3794 1.9104-10.531 2.8438-10.531 2.8438l-11.5 2 10.312 5.4688s4.6279 2.4562 9.1562 5.9375c2.2642 1.7407 4.4652 3.7422 5.9375 5.5938s2.0573 3.4514 2.0312 4.2812-0.69544 2.3699-2.2812 4.125-3.9119 3.5928-6.2812 5.1875c-4.7387 3.1895-9.5312 5.375-9.5312 5.375l-10.656 4.8125 11.375 2.7188s5.0967 1.2562 10.344 3.5c2.6235 1.1219 5.2403 2.4799 7.125 3.9062s2.8499 2.8448 3.0312 3.6562-0.0893 2.4692-1.1875 4.5625-2.8848 4.4613-4.7812 6.5938c-3.7929 4.265-7.875 7.5625-7.875 7.5625l-9.125 7.3125 11.688-0.1875s5.2604-0.0866 10.906 0.78125c2.8229 0.43393 5.6928 1.1185 7.875 2.0312s3.467 2.0418 3.8438 2.7812 0.51232 2.4165-0.0312 4.7188-1.6616 5.0546-2.9688 7.5938c-2.6143 5.0782-5.7812 9.2812-5.7812 9.2812l-7 9.3438 11.281-3.0938s5.0703-1.3721 10.75-1.9375c2.8399-0.28272 5.7864-0.3406 8.125 0s3.8571 1.0958 4.4062 1.7188 1.1116 2.2313 1.1562 4.5938-0.39455 5.2809-1.0312 8.0625c-1.2734 5.5631-3.25 10.438-3.25 10.438l-4.5 10.781 10.156-5.7812s4.5724-2.6066 9.9375-4.5625c2.6826-0.97796 5.5542-1.7497 7.9062-2s4.0003 0.12672 4.6875 0.59375 1.6174 1.8473 2.25 4.125 0.95367 5.2411 1.0312 8.0938c0.15517 5.7053-0.5625 10.906-0.5625 10.906l-1.6562 11.562 8.4062-8.125s3.7656-3.6471 8.4688-6.875c2.3516-1.614 4.9121-3.1106 7.125-3.9375s3.905-0.87545 4.6875-0.59375 2.069 1.418 3.25 3.4688 2.2132 4.8167 3 7.5625c1.5737 5.4916 2.1875 10.719 2.1875 10.719l1.2812 11.594 6.0938-9.9375s2.7446-4.4782 6.5-8.7812c1.8777-2.1515 3.9987-4.2401 5.9375-5.5938s3.5804-1.8281 4.4062-1.75 2.316 0.83901 3.9688 2.5312 3.3689 4.1301 4.8125 6.5938c2.8872 4.9273 4.75 9.8438 4.75 9.8438l4.125 10.906 3.4375-11.156s1.5582-5.0002 4.125-10.094c1.2834-2.5468 2.8341-5.0846 4.375-6.875s2.9908-2.6511 3.8125-2.7812 2.4796 0.24046 4.5 1.4688 4.2405 3.1597 6.25 5.1875c4.0191 4.0557 7.0625 8.3438 7.0625 8.3438l6.7188 9.5625 0.5625-11.656s0.24992-5.2613 1.4688-10.844c0.60941-2.7912 1.4527-5.6288 2.5-7.75s2.2703-3.327 3.0312-3.6562 2.4242-0.37619 4.6875 0.3125 4.9543 2.0021 7.4062 3.4688c4.9039 2.9332 8.9062 6.3438 8.9062 6.3438l8.875 7.5938-2.375-11.438s-1.0432-5.1648-1.25-10.875c-0.10341-2.8551 0.0128-5.8099 0.5-8.125s1.3448-3.773 2-4.2812 2.2932-0.97741 4.6562-0.875 5.2613 0.69199 8 1.5c5.4774 1.616 10.188 3.9375 10.188 3.9375l10.5 5.125-5.125-10.5s-2.3218-4.7184-3.9375-10.188c-0.80786-2.7345-1.3976-5.6092-1.5-7.9688s0.36501-3.9988 0.875-4.6562 1.9686-1.5104 4.2812-2 5.2739-0.631 8.125-0.53125c5.7022 0.1995 10.844 1.25 10.844 1.25l11.438 2.3438-7.5938-8.8438s-3.3872-4.0108-6.3125-8.9062c-1.4626-2.4477-2.7827-5.115-3.4688-7.375s-0.64293-3.9239-0.3125-4.6875 1.5371-1.9814 3.6562-3.0312 4.9626-1.9182 7.75-2.5312c5.5748-1.226 10.812-1.4688 10.812-1.4688l11.656-0.5625-9.5625-6.7188s-4.2881-3.0434-8.3438-7.0625c-2.0278-2.0095-3.9592-4.2608-5.1875-6.2812s-1.5987-3.6485-1.4688-4.4688 0.98811-2.2713 2.7812-3.8125 4.3242-3.0915 6.875-4.375c5.1015-2.5671 10.125-4.125 10.125-4.125l11.188-3.4375-10.938-4.125s-4.9164-1.8628-9.8438-4.75c-2.4636-1.4436-4.9015-3.1598-6.5938-4.8125s-2.4531-3.1416-2.5312-3.9688 0.39883-2.4675 1.75-4.4062 3.4148-4.06 5.5625-5.9375c4.2954-3.755 8.7812-6.5 8.7812-6.5l9.9375-6.125-11.594-1.2812s-5.236-0.55903-10.719-2.125c-2.7414-0.78298-5.5156-1.8222-7.5625-3s-3.1556-2.467-3.4375-3.25-0.2336-2.4711 0.59375-4.6875 2.3232-4.7693 3.9375-7.125c3.2285-4.7113 6.875-8.5 6.875-8.5l8.125-8.4062-11.562 1.6562s-5.2013 0.74161-10.906 0.59375c-2.8524-0.0739-5.8169-0.40134-8.0938-1.0312s-3.6584-1.5635-4.125-2.25-0.84407-2.3355-0.59375-4.6875 1.022-5.2237 2-7.9062c1.9559-5.3651 4.5625-9.9375 4.5625-9.9375l5.7812-10.125-10.781 4.4375s-4.8659 2.0149-10.438 3.2812c-2.7858 0.63318-5.7272 1.047-8.0938 1s-3.9707-0.60692-4.5938-1.1562-1.3782-2.0676-1.7188-4.4062-0.28272-5.3164 0-8.1562c0.56543-5.6797 1.9375-10.719 1.9375-10.719l3.0938-11.281-9.3438 7s-4.2031 3.167-9.2812 5.7812c-2.5391 1.3071-5.2915 2.4252-7.5938 2.9688s-3.9788 0.40827-4.7188 0.0312-1.8688-1.6646-2.7812-3.8438-1.5974-5.0562-2.0312-7.875c-0.86771-5.6376-0.78125-10.875-0.78125-10.875l0.1875-11.688-7.3125 9.125s-3.2976 4.0821-7.5625 7.875c-2.1325 1.8964-4.5005 3.683-6.5938 4.7812s-3.7513 1.3688-4.5625 1.1875-2.2296-1.1438-3.6562-3.0312-2.7842-4.4975-3.9062-7.125c-2.2442-5.2551-3.5-10.375-3.5-10.375l-2.7188-11.375zm-2.0938 22.25c0.35149 0.93385 0.52101 1.6497 0.9375 2.625 1.2806 2.9987 2.8614 6.1384 4.9062 8.8438s4.6386 5.1858 8.2812 6 7.03-0.33167 10.031-1.9062 5.7532-3.7414 8.1875-5.9062c0.79885-0.71043 1.2791-1.2685 2-1.9688 0.10854 0.99212 0.0886 1.7326 0.25 2.7812 0.49532 3.2182 1.2539 6.6248 2.5625 9.75s3.208 6.1817 6.5312 7.875 6.8878 1.4353 10.188 0.65625 6.5084-2.1956 9.4062-3.6875c0.94361-0.48578 1.5393-0.91093 2.4062-1.4062-0.14171 0.98542-0.33269 1.6972-0.4375 2.75-0.32274 3.2419-0.42598 6.7398 0.0625 10.094s1.5449 6.7824 4.3438 9.25 6.3284 3.0888 9.7188 3.1562 6.8522-0.49619 10.031-1.2188c1.0512-0.23892 1.742-0.51333 2.7188-0.78125-0.38715 0.93198-0.75721 1.5849-1.125 2.5938-1.1162 3.0617-2.11 6.4415-2.4688 9.8125s-0.15954 6.9456 1.9375 10.031 5.3586 4.5651 8.625 5.4688 6.7435 1.2281 10 1.3125c1.0697 0.0277 1.8067-0.0755 2.8125-0.0937-0.604 0.80331-1.1145 1.337-1.7188 2.2188-1.8424 2.6885-3.6268 5.6988-4.8125 8.875s-1.92 6.6772-0.65625 10.188 4.0638 5.7792 7 7.4688 6.2136 2.856 9.3438 3.75c1.0149 0.28988 1.7526 0.36282 2.7188 0.59375-0.77834 0.62263-1.3899 1.0215-2.1875 1.7188-2.4518 2.1434-4.9375 4.6263-6.875 7.4062s-3.5073 6.0054-3.1562 9.7188 2.5121 6.5688 4.9375 8.9375 5.3132 4.3524 8.125 6c0.91286 0.5349 1.5886 0.81578 2.4688 1.2812-0.90831 0.40849-1.6171 0.61801-2.5625 1.0938-2.9115 1.4651-5.9289 3.2276-8.5 5.4375s-4.8849 4.9701-5.4688 8.6562 0.77029 6.9784 2.5312 9.875 4.0916 5.5188 6.4062 7.8125c0.76362 0.75673 1.3767 1.1963 2.125 1.875-0.99059 0.17258-1.7366 0.20775-2.7812 0.4375-3.1816 0.69971-6.5568 1.6829-9.5938 3.1875s-5.9563 3.5771-7.4375 7-0.98405 6.977 0 10.219 2.58 6.3303 4.25 9.125c0.55216 0.92404 1.037 1.4994 1.5938 2.3438-1.0062-0.0798-1.7391-0.24369-2.8125-0.28125-3.2546-0.11387-6.7474-0.0143-10.062 0.6875s-6.6518 1.9908-8.9375 4.9375-2.7093 6.5216-2.5625 9.9062 0.92138 6.7841 1.8438 9.9062c0.30036 1.0167 0.61339 1.6818 0.9375 2.625-0.95039-0.32642-1.6311-0.63506-2.6562-0.9375-3.1258-0.92222-6.5193-1.697-9.9062-1.8438s-6.9581 0.27571-9.9062 2.5625-4.2079 5.619-4.9062 8.9375-0.80552 6.8041-0.6875 10.062c0.0388 1.07 0.16936 1.8091 0.25 2.8125-0.83711-0.5519-1.3976-1.0465-2.3125-1.5938-2.7983-1.6738-5.9119-3.2628-9.1562-4.25s-6.793-1.4824-10.219 0-5.4987 4.428-7 7.4688-2.4607 6.377-3.1562 9.5625c-0.23004 1.0536-0.26539 1.8139-0.4375 2.8125-0.67873-0.74832-1.1183-1.3614-1.875-2.125-2.2938-2.3146-4.9159-4.6453-7.8125-6.4062s-6.1897-3.1149-9.875-2.5312c-3.6839 0.58347-6.4149 2.9008-8.625 5.4688s-4.0035 5.5924-5.4688 8.5c-0.47247 0.93758-0.68758 1.6301-1.0938 2.5312-0.46547-0.8801-0.74635-1.5559-1.2812-2.4688-1.6476-2.8118-3.6313-5.6996-6-8.125s-5.2231-4.5864-8.9375-4.9375c-3.7156-0.35122-6.9388 1.2154-9.7188 3.1562s-5.2631 4.4192-7.4062 6.875c-0.70138 0.80368-1.093 1.4348-1.7188 2.2188-0.23311-0.97188-0.33232-1.6974-0.625-2.7188-0.89796-3.1335-2.0579-6.4368-3.75-9.375s-3.9584-5.7362-7.4688-7-7.0136-0.56107-10.188 0.625-6.1902 3.0011-8.875 4.8438c-0.88314 0.60613-1.4146 1.113-2.2188 1.7188 0.017-1.0058 0.12284-1.7428 0.0937-2.8125-0.0886-3.2563-0.4056-6.7344-1.3125-10s-2.3834-6.5282-5.4688-8.625-6.6602-2.2963-10.031-1.9375-6.7508 1.3526-9.8125 2.4688c-0.99564 0.36297-1.6415 0.71172-2.5625 1.0938 0.26529-0.96313 0.54429-1.6523 0.78125-2.6875 0.72686-3.1755 1.2827-6.6115 1.2188-10s-0.68871-6.9199-3.1562-9.7188-5.896-3.8553-9.25-4.3438-6.8519-0.38524-10.094-0.0625c-1.0528 0.10481-1.7646 0.29579-2.75 0.4375 0.49532-0.86693 0.92047-1.4626 1.4062-2.4062 1.4918-2.8979 2.9084-6.1066 3.6875-9.4062s1.0377-6.8629-0.65625-10.188c-1.6942-3.3251-4.747-5.2229-7.875-6.5312s-6.5282-2.0672-9.75-2.5625c-1.0588-0.16275-1.8114-0.17221-2.8125-0.28125 0.69501-0.71593 1.2639-1.1762 1.9688-1.9688 2.1648-2.4342 4.3317-5.1863 5.9062-8.1875s2.72-6.3906 1.9062-10.031-3.2977-6.2361-6-8.2812-5.8176-3.6255-8.8125-4.9062c-0.97405-0.41654-1.6923-0.58596-2.625-0.9375 0.85502-0.52258 1.5223-0.84257 2.4062-1.4375 2.7042-1.8201 5.4769-3.953 7.75-6.4688s4.2265-5.5201 4.3438-9.25-1.6398-6.8462-3.75-9.5-4.7596-4.9821-7.3438-6.9688c-0.85442-0.65686-1.5144-1.0127-2.3438-1.5938 0.96695-0.29592 1.7046-0.42111 2.7188-0.78125 3.0702-1.0903 6.299-2.441 9.125-4.3125s5.4592-4.3236 6.5-7.9062 0.10402-7.0312-1.2812-10.125-3.3648-5.9667-5.375-8.5312c-0.6648-0.8481-1.2157-1.3566-1.875-2.125 1.0124-0.0463 1.7694 3e-3 2.8438-0.0937 3.2466-0.29295 6.7024-0.82741 9.9062-1.9375s6.3505-2.7881 8.25-6 1.8533-6.7844 1.2812-10.125-1.7536-6.6418-3.0625-9.625c-0.4292-0.9782-0.83765-1.5989-1.2812-2.5 0.98445 0.20425 1.6944 0.4227 2.75 0.59375 3.2177 0.5214 6.6834 0.87403 10.062 0.59375s6.8619-1.1432 9.5-3.7812 3.5043-6.1227 3.7812-9.5-0.0681-6.8483-0.59375-10.062c-0.17335-1.0599-0.41822-1.7621-0.625-2.75 0.90901 0.44587 1.5437 0.84994 2.5312 1.2812 2.987 1.3046 6.2824 2.4942 9.625 3.0625s6.914 0.61774 10.125-1.2812 4.8928-5.048 6-8.25 1.6486-6.6631 1.9375-9.9062c0.0938-1.0535 0.0488-1.7871 0.0937-2.7812 0.75908 0.64807 1.2576 1.1907 2.0938 1.8438 2.5684 2.0059 5.4665 3.9625 8.5625 5.3438s6.543 2.3219 10.125 1.2812 6.0348-3.7052 7.9062-6.5312 3.2534-6.0235 4.3438-9.0938c0.35669-1.0044 0.48757-1.7292 0.78125-2.6875 0.57214 0.81743 0.91696 1.471 1.5625 2.3125 1.9828 2.5845 4.2862 5.2015 6.9375 7.3125s5.7704 3.8985 9.5 3.7812 6.7342-2.0707 9.25-4.3438 4.6487-5.0458 6.4688-7.75c0.59493-0.88392 0.91492-1.5512 1.4375-2.4062z"/>
 <path d="m393.5 379.04c-30.735 0-58.037 14.71-75.25 37.469-14.594-9.2676-31.901-14.625-50.469-14.625-46.876 0-85.768 34.216-93.062 79.031-43.073 8.7073-75.531 46.765-75.531 92.406 0 52.073 42.24 94.281 94.312 94.281 21.236 0 40.832-7.0284 56.594-18.875 9.1676 2.9727 18.936 4.5938 29.094 4.5938 9.8334 0 19.338-1.5196 28.25-4.3125 16.72 15.104 38.881 24.312 63.188 24.312 24.68 0 47.163-9.4792 63.969-25 15.139 10.36 33.458 16.406 53.188 16.406 15.658 0 30.411-3.809 43.406-10.562 6.2741 1.3153 12.772 2 19.438 2 52.072 0 94.281-42.209 94.281-94.281s-42.209-94.281-94.281-94.281c-0.5112 0-1.022 0.0231-1.5313 0.0312-16.788-20.342-41.934-33.528-70.188-34.281-15.041-32.094-47.62-54.312-85.406-54.312z" fill="#fff"/>
 <path d="m393.47 375.02c-30.771 0-58.169 14.271-76.188 36.438-14.565-8.5325-31.45-13.562-49.531-13.562-47.894 0-87.757 34.34-96.437 79.75-43.6 10.064-76.125 49.079-76.125 95.688 0 54.234 44.047 98.281 98.281 98.281 21.379 0 41.177-6.8926 57.312-18.5 9.0039 2.7182 18.524 4.2188 28.406 4.2188 9.4809 0 18.632-1.3966 27.312-3.9062 17.216 14.849 39.622 23.906 64.125 23.906 24.598 0 47.043-9.1417 64.281-24.094 15.27 9.771 33.384 15.5 52.844 15.5 15.814 0 30.753-3.79 44-10.438 6.1241 1.1918 12.418 1.875 18.875 1.875 54.234 0 98.281-44.047 98.281-98.281 0-54.171-43.946-98.179-98.094-98.281-16.996-19.749-41.732-32.652-69.469-34.063-16.121-32.276-49.386-54.531-87.875-54.531zm0 8c36.216 0 67.413 21.306 81.812 52.031a4.0004 4.0004 0 0 0 3.5313 2.3125c27.062 0.72951 51.114 13.336 67.187 32.813a4.0004 4.0004 0 0 0 3.1563 1.4688c0.5879-9e-3 1.0784-0.0312 1.4687-0.0312 49.911 0 90.281 40.37 90.281 90.281s-40.37 90.281-90.281 90.281c-6.4009 0-12.648-0.64501-18.656-1.9062a4.0004 4.0004 0 0 0 -2.6562 0.3437c-12.438 6.4602-26.563 10.125-41.563 10.125-18.918 0-36.434-5.82-50.937-15.75a4.0004 4.0004 0 0 0 -4.9688 0.375c-16.101 14.874-37.56 23.969-61.219 23.969-23.295 0-44.485-8.8145-60.5-23.281a4.0004 4.0004 0 0 0 -3.875 -0.84375c-8.5404 2.679-17.63 4.125-27.062 4.125-9.7392 0-19.093-1.557-27.875-4.4062a4.0004 4.0004 0 0 0 -3.6563 0.625c-15.096 11.346-33.835 18.062-54.188 18.062-49.911 0-90.281-40.37-90.281-90.281 0-43.755 31.062-80.174 72.312-88.5a4.0004 4.0004 0 0 0 3.1563 -3.25c6.9849-42.909 44.165-75.687 89.094-75.687 17.796 0 34.339 5.1272 48.313 14a4.0004 4.0004 0 0 0 5.3437 -0.96875c16.486-21.809 42.597-35.906 72.062-35.906z"/>
 <path d="m392.16 391.81c-35.258 0-65.632 21.442-79.562 52.312 0.1075 0.0695 0.2052 0.14877 0.3125 0.21875 16.009-21.79 41.405-35.875 70-35.875 28.683 0 54.152 14.184 70.156 36.094l-0.6563 0.125c3.4635 4.8588 6.467 10.076 8.9687 15.594 5.4214 0.15107 10.733 0.80256 15.875 1.9062l0.4688 0.0937c12.648 2.7877 24.298 8.3256 34.344 16l-0.4063 0.0937c5.1962 3.7285 9.9347 7.9739 14.156 12.594 0.5101-7e-3 1.0191-0.0312 1.5312-0.0312 52.164 0 94.438 38.201 94.438 85.312 0 12.126-2.7939 23.649-7.8437 34.094 11.194-14.02 17.812-31.208 17.812-49.812 0-47.112-42.273-85.312-94.437-85.312-0.4257 0-0.857 0.0262-1.2813 0.0312-15.792-18.911-38.852-31.105-64.719-31.969-14.102-30.408-44.229-51.469-79.156-51.469zm-123.94 21.125c-2.2098-0.036-4.4141 0.0385-6.6562 0.1875-34.258 2.277-62.254 25.821-73.063 57.594 13.681-23.059 37.392-39.05 65.313-40.906 16.436-1.0925 32.103 2.8613 45.594 10.594 3.2767-5.24 7.1138-10.086 11.375-14.469-12.492-8.0316-27.094-12.748-42.562-13zm128.62 29.844c-24.868 0.0657-47.757 10.099-64.156 26.531 1.8694 1.3418 3.7154 2.7172 5.4687 4.1875 17.623-12.541 39.981-18.892 63.5-16.25 49.606 5.5732 85.433 49.041 80.031 97.125-0.6719 5.9793-1.9321 11.774-3.75 17.281 5.0969-9.4034 8.4577-19.901 9.7187-31.125 5.4022-48.084-30.425-91.583-80.031-97.156-3.6199-0.4067-7.2286-0.60314-10.781-0.59375zm-151.94 25.219c-6.9318 5e-3 -13.973 0.79948-21.031 2.4375-20.465 4.7496-37.744 15.896-50.062 30.719 0.8633-4.6006 2.1185-9.0522 3.6874-13.375-26.664 6.9561-48.436 25.436-59.312 49.594 12.852-17.277 31.994-29.865 54.219-34.5-12.477 15.784-19.475 35.483-19 56 5.4198-34.771 32.128-64.74 69.469-73.406 22.698-5.2676 45.308-1.736 64.094 8.3125 4.4141-2.5463 9.125-4.739 14.031-6.5625-15.57-12.217-35.298-19.233-56.094-19.219z"/>
</svg>
